<svg width="625" height="258" viewBox="0 0 625 258" fill="none" xmlns="http://www.w3.org/2000/svg">
<path d="M110.454 175.022C105.992 175.869 102.541 175.677 100.102 174.444C97.7031 173.203 96.2821 171.416 95.8389 169.082C95.4967 167.281 95.8862 165.871 97.0074 164.853C98.1618 163.785 99.3735 163.131 100.642 162.89C101.256 162.773 101.954 162.874 102.736 163.192C103.558 163.502 104.062 164.148 104.249 165.131C104.397 165.909 104.185 166.691 103.614 167.478C103.034 168.224 102.274 168.687 101.332 168.866C100.8 168.967 100.281 169.023 99.7741 169.035C99.2673 169.046 98.7859 168.968 98.3299 168.8L98.3882 169.107C98.7304 170.908 99.8944 172.235 101.88 173.088C103.858 173.9 106.341 174.022 109.329 173.454C111.949 172.956 114.361 172.032 116.564 170.68C118.808 169.321 121.121 167.1 123.505 164.018C125.929 160.927 128.643 156.574 131.647 150.956C134.693 145.33 138.347 137.999 142.61 128.961C140.03 127.882 138.542 126.298 138.145 124.211C137.795 122.369 138.306 120.702 139.677 119.212C141.047 117.722 142.613 116.809 144.373 116.475C145.151 116.327 145.621 116.344 145.782 116.525C145.944 116.707 146.025 116.797 146.025 116.797C146.072 117.043 145.857 117.253 145.381 117.428C143.553 118.073 142.26 119.082 141.503 120.455C140.746 121.829 140.519 123.314 140.823 124.911C141.002 125.852 141.852 126.645 143.374 127.289L144.012 125.959C147.331 119.094 150.544 113.012 153.651 107.714C156.8 102.408 160 97.6016 163.254 93.2938C166.54 88.9372 170.089 84.8488 173.901 81.0285L176.104 78.8924C173.499 77.9029 170.304 77.3859 166.521 77.3411C162.738 77.2964 158.349 77.7484 153.355 78.6972C145.537 80.1825 138.338 82.6953 131.758 86.2355C125.219 89.768 119.631 93.8408 114.994 98.454C110.349 103.026 106.936 107.725 104.757 112.55C102.611 117.326 101.984 121.729 102.877 125.758C103.637 129.091 105.063 131.238 107.154 132.198C109.245 133.158 111.17 133.47 112.93 133.136C115.878 132.576 118.674 131.112 121.32 128.743C123.966 126.374 126.372 123.521 128.537 120.183C130.743 116.838 132.631 113.383 134.202 109.819C135.773 106.255 136.949 102.956 137.73 99.9239C138.544 96.8428 138.894 94.4436 138.78 92.7264C138.639 91.3113 138.793 90.561 139.243 90.4755C139.652 90.3977 139.978 90.9933 140.219 92.2623C141.018 95.8003 141.057 99.8008 140.336 104.264C139.607 108.686 138.102 113.043 135.821 117.336C133.582 121.621 130.559 125.355 126.752 128.538C122.946 131.721 118.383 133.818 113.061 134.829C110.769 135.264 108.359 134.747 105.832 133.276C103.304 131.805 101.708 129.542 101.043 126.488C100.158 122.499 100.467 118.433 101.97 114.288C103.473 110.143 105.886 106.101 109.209 102.161C112.532 98.2218 116.506 94.5829 121.131 91.2444C125.797 87.8981 130.85 85.0296 136.291 82.6387C141.724 80.2069 147.286 78.4506 152.976 77.3697C158.093 76.3976 162.731 75.9194 166.89 75.9351C171.049 75.9507 174.739 76.395 177.958 77.2678C180.224 75.3529 182.257 73.8853 184.056 72.8648C185.897 71.8366 187.308 71.2292 188.291 71.0425C189.068 70.8948 189.517 71.0217 189.635 71.4232C189.682 71.6688 189.618 71.893 189.445 72.0956C189.312 72.2904 188.906 72.4949 188.225 72.709C185.625 73.7543 183.013 75.5229 180.39 78.0145C184.079 79.3494 187.003 81.2327 189.162 83.6642C191.32 86.0958 192.702 88.908 193.309 92.1009C194.032 95.9078 193.627 99.8019 192.093 103.783C190.559 107.764 188.177 111.525 184.948 115.065C181.719 118.605 177.889 121.665 173.46 124.245C169.063 126.777 164.347 128.521 159.312 129.478C156.079 130.092 153.036 130.373 150.184 130.321C145.182 140.602 140.395 148.891 135.823 155.188C131.244 161.445 126.835 166.142 122.596 169.28C118.39 172.369 114.343 174.283 110.454 175.022ZM158.764 127.928C162.038 127.306 165.43 125.962 168.94 123.895C172.441 121.788 175.593 119.069 178.396 115.737C181.239 112.398 183.324 108.524 184.649 104.116C186.008 99.6588 186.186 94.7901 185.183 89.5096C184.358 85.1705 182.121 81.9905 178.472 79.9694C174.624 84.0509 170.796 89.4646 166.988 96.2105C163.181 102.956 159.265 110.698 155.242 119.436C154.532 121.055 153.834 122.63 153.149 124.159C152.456 125.648 151.76 127.117 151.06 128.564C153.699 128.614 156.267 128.402 158.764 127.928ZM182.724 161.292C180.104 161.79 178.044 161.439 176.544 160.24C175.085 159.032 174.118 157.18 173.644 154.683C173.123 151.941 173.14 148.905 173.695 145.576C174.291 142.24 175.648 138.78 177.767 135.196C182.072 127.72 186.417 122.462 190.802 119.424C195.22 116.337 199.537 114.393 203.753 113.592C205.882 113.187 207.769 113.295 209.413 113.916C211.058 114.537 212.028 115.625 212.324 117.18C212.549 118.367 212.533 119.622 212.275 120.943C213.29 119.139 214.138 117.578 214.821 116.26C215.537 114.895 216.224 113.598 216.881 112.37C218.008 112.495 219.267 112.426 220.659 112.161C221.232 112.053 222.006 111.884 222.98 111.657C223.955 111.429 224.7 111.224 225.217 111.041L209.26 139.901C207.232 143.51 205.831 146.406 205.058 148.588C204.277 150.73 203.988 152.333 204.19 153.397C204.439 154.707 205.198 155.241 206.467 155C208.677 154.58 210.849 153.51 212.982 151.79C215.108 150.03 217.126 147.928 219.037 145.487C220.941 143.005 222.689 140.489 224.283 137.938C225.869 135.346 227.244 132.986 228.409 130.856C229.607 128.677 230.529 127.06 231.177 126.004L232.603 126.815C231.897 128.009 230.908 129.724 229.636 131.959C228.364 134.194 226.878 136.639 225.177 139.295C223.517 141.943 221.653 144.524 219.586 147.037C217.56 149.542 215.382 151.695 213.052 153.495C210.763 155.287 208.37 156.42 205.873 156.895C201.779 157.672 199.491 156.792 199.009 154.254C198.83 153.313 198.815 152.34 198.964 151.336C199.146 150.284 199.625 148.899 200.401 147.183C201.17 145.425 202.374 143.054 204.013 140.071L203.352 139.942C199.524 147.031 195.723 152.249 191.948 155.596C188.214 158.935 185.139 160.833 182.724 161.292ZM182.62 159.403C185.24 158.906 188.411 156.734 192.133 152.888C195.848 149.002 200.038 142.926 204.702 134.66C205.459 133.286 206.15 132.01 206.774 130.831C207.439 129.644 208.075 128.527 208.682 127.478C209.351 125.867 209.906 124.213 210.348 122.518C210.83 120.815 210.951 119.328 210.71 118.059C210.468 116.79 209.843 115.955 208.834 115.553C207.817 115.11 206.776 114.99 205.711 115.192C203.706 115.573 200.727 117.644 196.777 121.406C192.859 125.119 188.822 130.657 184.665 138.021C182.295 142.288 180.706 145.983 179.9 149.105C179.093 152.227 178.877 154.771 179.25 156.735C179.654 158.864 180.778 159.753 182.62 159.403ZM208.951 206.25C207.231 206.576 205.713 206.398 204.396 205.716C203.038 205.04 202.269 204.232 202.09 203.291C201.723 201.579 202.007 199.617 202.944 197.403C203.847 195.238 205.691 192.661 208.473 189.673C211.256 186.684 215.212 183.176 220.342 179.147C225.432 175.127 231.965 170.45 239.943 165.118C242.522 160.387 245.356 155.098 248.444 149.252C251.573 143.399 255.04 136.866 258.844 129.655L258.306 129.502C254.103 136.62 250.117 141.873 246.35 145.261C242.575 148.607 239.398 150.526 236.819 151.016C234.24 151.505 232.201 151.151 230.7 149.951C229.2 148.752 228.172 146.911 227.616 144.43C227.095 141.687 227.091 138.656 227.606 135.335C228.161 132.006 229.457 128.558 231.493 124.99C234.197 120.023 237.03 116.071 239.992 113.133C242.987 110.146 245.955 107.907 248.895 106.416C251.835 104.924 254.594 103.933 257.173 103.443C259.834 102.938 262.048 102.984 263.815 103.581C265.583 104.178 266.635 105.251 266.971 106.799C267.197 107.986 267.181 109.24 266.923 110.561C267.896 108.765 268.724 107.208 269.407 105.891C270.09 104.573 270.715 103.288 271.283 102.035C271.757 102.072 272.353 102.086 273.072 102.077C273.825 102.019 274.549 101.924 275.245 101.792C275.777 101.69 276.53 101.526 277.505 101.299C278.48 101.071 279.225 100.866 279.742 100.683L264.811 129.921C261.945 135.597 259.255 140.858 256.74 145.704C254.267 150.543 251.956 155.011 249.808 159.109C257.531 153.103 264.479 146.588 270.651 139.563C276.815 132.496 282.393 124.46 287.383 115.454L288.809 116.264C283.271 126.18 277.173 134.825 270.515 142.197C263.85 149.528 256.348 156.254 248.011 162.376C243.343 171.067 239.278 178.137 235.818 183.587C232.406 189.07 229.293 193.33 226.477 196.368C223.628 199.454 220.831 201.703 218.088 203.114C215.312 204.575 212.266 205.62 208.951 206.25ZM236.899 149.092C239.191 148.656 242.313 146.558 246.263 142.796C250.206 138.993 254.63 132.809 259.534 124.243L263.215 117.5C263.925 115.881 264.514 114.179 264.981 112.393C265.488 110.601 265.614 109.029 265.357 107.678C264.85 105.23 262.774 104.351 259.131 105.044C257.207 105.409 254.294 107.489 250.392 111.284C246.483 115.038 242.592 120.57 238.722 127.879C236.441 132.172 234.853 135.866 233.957 138.963C233.094 142.011 232.869 144.513 233.284 146.471C233.811 148.576 235.016 149.45 236.899 149.092ZM208.82 204.557C210.908 204.16 212.914 203.334 214.838 202.078C216.729 200.87 218.758 198.937 220.925 196.277C223.058 193.667 225.516 190.082 228.298 185.525C231.079 180.967 234.412 175.181 238.296 168.166C229.47 174.169 222.494 179.311 217.37 183.593C212.212 187.923 208.61 191.619 206.562 194.68C204.481 197.79 203.665 200.532 204.117 202.906C204.202 203.356 204.688 203.794 205.575 204.219C206.469 204.685 207.551 204.798 208.82 204.557ZM296.364 139.958C292.353 140.72 289.289 140.221 287.173 138.46C285.057 136.699 283.67 134.311 283.013 131.298C282.552 129.095 282.536 126.553 282.964 123.673C283.392 120.792 283.982 118.538 284.733 116.911C286.962 112.12 289.583 108.059 292.598 104.729C295.613 101.4 298.682 98.8023 301.805 96.9366C304.962 95.0221 307.83 93.82 310.408 93.3301C312.905 92.8557 314.723 92.9345 315.861 93.5666C317.04 94.1909 317.751 95.0313 317.994 96.0878C318.42 97.6609 317.914 99.6867 316.476 102.165C315.072 104.595 312.331 107.47 308.254 110.789C304.177 114.108 298.322 117.892 290.689 122.142C289.692 124.706 289.107 126.874 288.935 128.646C288.755 130.377 288.789 131.897 289.038 133.207C289.403 135.131 290.322 136.504 291.793 137.327C293.305 138.143 294.941 138.383 296.701 138.049C300.549 137.318 304.015 135.917 307.1 133.847C310.217 131.728 312.958 129.299 315.322 126.559C317.726 123.812 319.779 121.111 321.48 118.455C323.173 115.759 324.535 113.443 325.567 111.508C326.592 109.532 327.29 108.296 327.662 107.802L329.15 108.6C328.637 109.249 327.815 110.614 326.684 112.695C325.593 114.769 324.144 117.186 322.336 119.947C320.568 122.7 318.442 125.458 315.955 128.22C313.469 130.983 310.585 133.439 307.303 135.59C304.063 137.732 300.417 139.188 296.364 139.958ZM291.693 119.724C299.106 115.432 304.824 111.377 308.849 107.559C312.866 103.699 314.618 100.419 314.105 97.7173C313.669 95.425 312.387 94.481 310.259 94.8854C307.516 95.4064 304.828 97.4438 302.195 100.998C299.562 104.552 296.65 109.537 293.458 115.954C292.775 117.271 292.187 118.528 291.693 119.724ZM417.907 117.695C417.334 117.804 416.993 117.572 416.884 116.999C416.822 116.671 416.935 116.374 417.224 116.107C417.356 115.912 417.51 115.714 417.683 115.511C417.89 115.26 418.056 115.016 418.18 114.78C418.963 113.317 419.596 111.627 420.08 109.712C420.557 107.755 420.977 105.279 421.341 102.283C421.746 99.28 422.171 95.4883 422.615 90.9081C423.409 83.2506 424.984 74.575 427.341 64.8814C429.739 55.18 432.606 45.6016 435.942 36.1463C433.569 40.6261 431.384 44.7522 429.387 48.5247C427.381 52.2562 425.368 55.9468 423.347 59.5965C421.326 63.2461 419.115 67.1227 416.713 71.2263C414.345 75.2812 411.575 79.9002 408.404 85.0832C400.808 97.3412 394.035 106.898 388.085 113.754C382.127 120.569 376.59 124.463 371.473 125.435C367.298 126.228 364.031 126 361.674 124.752C359.357 123.495 357.984 121.742 357.557 119.49C357.207 117.648 357.592 116.218 358.714 115.199C359.827 114.139 361.018 113.489 362.287 113.248C362.983 113.115 363.722 113.208 364.503 113.526C365.285 113.844 365.769 114.495 365.955 115.477C366.103 116.255 365.891 117.037 365.32 117.825C364.741 118.571 364.001 119.029 363.1 119.2C362.568 119.302 362.028 119.362 361.48 119.381C360.974 119.392 360.492 119.314 360.036 119.146L360.106 119.515C360.441 121.275 361.498 122.601 363.279 123.492C365.093 124.335 367.679 124.438 371.036 123.8C373.573 123.318 376.589 121.664 380.081 118.837C383.606 115.962 387.702 111.515 392.369 105.497C397.036 99.4785 402.348 91.4928 408.303 81.5397C418.404 64.6071 426.03 51.283 431.182 41.5673C436.375 31.8439 439.206 26.4288 439.674 25.3219C440.24 24.2814 440.666 23.7339 440.953 23.6795C441.321 23.6095 441.54 23.7587 441.61 24.1271C441.657 24.3727 441.626 24.6543 441.517 24.972L440.96 26.7317C440.263 28.6454 439.78 30.4549 439.51 32.1602C439.233 33.8246 439.012 35.5631 438.847 37.3756C438.637 39.6209 438.443 41.948 438.265 44.357C438.119 46.7172 437.876 49.4566 437.536 52.5749C437.187 55.6524 436.649 59.4021 435.919 63.8243C435.137 68.6381 434.242 72.9647 433.232 76.8039C432.223 80.6431 431.011 84.6479 429.598 88.8182C428.226 92.9808 426.531 98.0106 424.512 103.908C425.993 101.209 427.985 97.6283 430.488 93.1661C432.983 88.6629 435.776 83.7214 438.868 78.3415C441.993 72.9129 445.254 67.4161 448.65 61.8511C452.038 56.2453 455.362 50.9697 458.621 46.0245C464.436 37.1161 469.818 29.8379 474.767 24.1899C479.709 18.501 484.438 14.1461 488.953 11.1253C493.51 8.09667 498.097 6.12252 502.715 5.20284C507.013 4.38631 510.45 4.73004 513.026 6.23403C515.594 7.69709 517.229 10.1645 517.931 13.6361C518.454 16.1663 518.09 19.1618 516.839 22.6228C515.621 26.0351 513.651 29.5054 510.928 33.0339C508.247 36.5546 504.955 39.767 501.053 42.6712C499.671 43.6549 498.591 44.2205 497.813 44.3683C497.363 44.4538 497.111 44.3533 497.056 44.0668C496.994 43.7393 497.28 43.3457 497.913 42.8861C500.988 40.9872 503.885 38.486 506.603 35.3824C509.322 32.2788 511.429 28.9732 512.926 25.4656C514.415 21.917 514.86 18.5668 514.261 15.4148C513.647 12.181 512.292 9.85118 510.198 8.42538C508.136 6.95088 505.53 6.51302 502.378 7.11181C497.793 7.98277 493.048 10.2414 488.142 13.8877C483.277 17.5263 478.033 22.8486 472.408 29.8548C466.784 36.861 460.584 45.8637 453.81 56.863C448.43 65.604 443.595 73.7537 439.305 81.3121C435.008 88.8296 431.295 95.4089 428.168 101.05C425.082 106.683 422.625 111.052 420.797 114.156C419.974 115.627 419.348 116.573 418.919 116.994C418.49 117.415 418.153 117.648 417.907 117.695ZM380.794 71.6884C377.642 72.2872 374.557 72.237 371.54 71.5377C368.523 70.8385 365.918 69.4037 363.725 67.2333C361.564 65.0142 360.122 62.0012 359.399 58.1943C358.668 54.3464 359.178 50.6658 360.928 47.1525C362.67 43.5982 365.437 40.5278 369.229 37.9412C373.063 35.3469 377.701 33.5326 383.146 32.4983C386.134 31.9306 389.001 31.6192 391.747 31.564C394.486 31.4679 397.576 31.7715 401.018 32.4748C403.269 32.9379 405.401 33.4447 407.414 33.9953C409.419 34.505 411.69 35.0703 414.225 35.6914C415.726 36.0001 417.248 36.1986 418.792 36.2871C420.335 36.3755 421.782 36.2915 423.133 36.0348C424.648 35.7471 426.145 35.1446 427.625 34.2273C429.146 33.3022 430.386 32.2396 431.345 31.0394C431.917 30.2523 432.325 29.8354 432.571 29.7887C432.898 29.7265 433.093 29.8591 433.155 30.1866C433.218 30.5141 433.02 31.0393 432.564 31.7621C431.661 33.0364 430.411 34.2705 428.814 35.4646C427.209 36.6176 425.533 37.6148 423.784 38.4559C422.068 39.2484 420.576 39.7651 419.307 40.0062C416.769 40.4883 413.757 40.5941 410.27 40.3234C406.776 40.0118 403.615 39.3398 400.79 38.3074C397.198 37.0387 394.212 36.1641 391.83 35.6834C389.49 35.195 387.453 34.967 385.72 34.9993C383.98 34.9906 382.25 35.1496 380.53 35.4762C376.478 36.2461 372.884 37.7559 369.749 40.0056C366.614 42.2552 364.267 44.9701 362.708 48.1503C361.19 51.3227 360.765 54.669 361.434 58.1894C362.258 62.5285 364.396 65.8546 367.846 68.1679C371.297 70.4812 375.438 71.179 380.268 70.2614C383.092 69.7248 385.743 68.6064 388.219 66.906C390.687 65.1647 392.592 63.0217 393.932 60.4768C395.313 57.9242 395.712 55.1128 395.129 52.0427C394.818 50.4054 393.997 49.0981 392.666 48.121C392.442 48.5029 392.152 48.876 391.797 49.2403C391.475 49.5559 391.049 49.7642 390.516 49.8653C389.739 50.0131 388.996 49.8997 388.289 49.5251C387.574 49.1096 387.138 48.4925 386.983 47.6738C386.851 46.9779 386.976 46.2968 387.358 45.6304C387.781 44.9562 388.484 44.5258 389.467 44.3392C390.981 44.0514 392.496 44.5482 394.012 45.8295C395.52 47.0698 396.511 48.9385 396.986 51.4355C397.616 54.7512 397.226 57.8364 395.818 60.6912C394.401 63.505 392.351 65.8877 389.669 67.8394C386.986 69.7911 384.027 71.0741 380.794 71.6884ZM459.216 108.766C455.778 109.419 453.092 109.123 451.159 107.879C449.219 106.594 447.928 104.824 447.288 102.571C446.637 99.8105 446.642 96.7134 447.304 93.2795C448.008 89.8377 448.911 86.8882 450.013 84.431C451.482 81.2254 453.405 78.0611 455.78 74.9378C458.148 71.7737 460.875 69.0502 463.961 66.7673C467.081 64.4358 470.442 62.9279 474.044 62.2435C476.214 61.8314 478.185 62.0506 479.958 62.9013C481.765 63.7032 482.983 65.3167 483.614 67.7417C484.479 71.1822 484.5 74.9742 483.675 79.1175C482.843 83.2199 481.408 87.1613 479.369 90.9415C479.881 92.0742 480.915 92.4927 482.47 92.1972C483.985 91.9095 485.53 91.001 487.106 89.4717C488.673 87.9015 490.141 86.1383 491.508 84.1821C492.916 82.2181 494.102 80.4236 495.066 78.7985C496.03 77.1734 496.677 76.1174 497.009 75.6302L498.558 76.4175C497.92 77.302 497.033 78.6582 495.895 80.4859C494.75 82.2726 493.453 84.1519 492.004 86.1236C490.588 88.0467 489.068 89.7563 487.444 91.2524C485.86 92.7407 484.271 93.6365 482.674 93.9398C480.709 94.3131 479.262 93.9518 478.333 92.856C475.957 96.8699 473.08 100.364 469.7 103.339C466.354 106.265 462.86 108.074 459.216 108.766ZM460.463 106.621C461.896 106.348 463.476 105.624 465.203 104.448C466.931 103.271 468.608 101.829 470.234 100.12C472.958 97.27 475.302 94.0893 477.264 90.578L477.217 90.3323C476.735 87.7944 477.009 85.6642 478.039 83.9417C479.102 82.1705 480.229 80.9597 481.421 80.3093C482.633 75.7529 482.822 71.8363 481.988 68.5595C481.484 66.577 480.687 65.2863 479.598 64.6874C478.55 64.0808 477.473 63.8824 476.368 64.0924C473.993 64.5434 471.335 66.5117 468.392 69.9972C465.482 73.4339 462.4 78.197 459.146 84.2863C456.841 88.6687 455.322 92.2864 454.592 95.1395C453.903 97.9848 453.823 100.354 454.352 102.247C454.562 103.352 455.152 104.449 456.122 105.537C457.133 106.617 458.58 106.978 460.463 106.621ZM497.286 101.534C495.034 101.961 493.27 101.83 491.994 101.139C490.677 100.457 489.886 99.4193 489.622 98.0275C489.412 96.9223 489.349 95.8103 489.433 94.6915C489.51 93.5319 489.859 92.0235 490.482 90.1663C491.105 88.3091 492.11 85.7855 493.497 82.5956C494.877 79.3646 496.764 75.1253 499.16 69.8776L510.768 44.5792L505.917 45.5007C504.689 45.734 504.024 45.5846 503.923 45.0525C503.799 44.3975 504.514 43.9223 506.07 43.6268L511.657 42.5653L519.984 24.4428C520.532 24.4236 521.243 24.3733 522.118 24.2918C523.027 24.1617 524.296 23.9206 525.925 23.5686C526.744 23.4131 527.608 23.164 528.519 22.8214L519.701 41.0372L535.543 38.0277C536.689 37.81 537.316 37.9876 537.425 38.5607C537.542 39.1747 537.089 39.5789 536.065 39.7734L518.689 43.0745L506.631 68.013C503.763 73.9018 501.477 78.7256 499.774 82.4846C498.071 86.2435 496.788 89.2016 495.925 91.3588C495.104 93.5083 494.557 95.0965 494.286 96.1236C494.055 97.1428 493.983 97.8776 494.068 98.3279C494.302 99.5559 495.449 100.016 497.512 99.7095C500.328 99.132 503.06 97.6588 505.706 95.29C508.385 92.8725 510.867 90.0894 513.153 86.9408C515.431 83.7513 517.435 80.6776 519.163 77.7197C520.883 74.7209 522.218 72.368 523.166 70.6611L524.715 71.4483C523.792 73.0656 522.434 75.4019 520.639 78.4572C518.844 81.5125 516.717 84.7157 514.258 88.067C511.832 91.3695 509.184 94.2899 506.316 96.8281C503.448 99.3664 500.438 100.935 497.286 101.534ZM207.992 169.724C204.881 170.315 202.248 170.074 200.093 168.999C197.971 167.875 196.653 165.962 196.14 163.26C195.486 159.822 196.164 156.131 198.171 152.187C200.212 148.194 203.42 144.319 207.795 140.561C212.163 136.763 217.511 133.435 223.839 130.579C227.286 129.076 230.849 127.848 234.527 126.895C238.205 125.941 241.907 125.111 245.632 124.403C250.053 123.563 254.605 123.08 259.289 122.954C263.965 122.786 268.411 122.302 272.627 121.501C278.481 120.389 283.035 118.464 286.289 115.725C289.544 112.986 291.809 109.841 293.085 106.291C293.32 105.737 293.531 105.4 293.72 105.28C293.902 105.118 294.074 105.022 294.238 104.99C294.606 104.92 294.818 105.029 294.872 105.315C294.903 105.479 294.914 105.647 294.904 105.818C294.894 105.99 294.777 106.266 294.553 106.648C292.441 112.054 289.079 116.679 284.466 120.525C279.885 124.321 273.727 126.954 265.99 128.424C260.341 129.497 254.562 130.108 248.652 130.255C242.776 130.353 237.033 130.935 231.425 132.001C226.759 132.887 222.286 134.458 218.007 136.713C213.76 138.919 210.03 141.494 206.814 144.437C203.599 147.381 201.167 150.43 199.518 153.585C197.862 156.699 197.29 159.606 197.804 162.308C198.185 164.314 199.004 165.834 200.26 166.867C201.558 167.893 203.332 168.192 205.584 167.764C208.449 167.22 211.256 165.923 214.006 163.874C216.796 161.817 219.303 159.39 221.529 156.592C223.754 153.794 225.51 150.98 226.795 148.148C228.073 145.276 228.637 142.773 228.486 140.638C228.527 139.74 228.63 139.275 228.794 139.244C229.203 139.166 229.489 139.557 229.653 140.417C230.236 143.487 230.005 146.627 228.961 149.836C227.95 152.997 226.356 155.993 224.179 158.824C222.036 161.607 219.561 163.985 216.756 165.96C213.942 167.894 211.021 169.149 207.992 169.724ZM190.052 224.981C187.678 225.432 185.328 225.454 183.003 225.048C180.678 224.641 178.691 223.895 177.043 222.808C175.394 221.722 174.415 220.36 174.104 218.723C173.762 216.922 174.151 215.512 175.272 214.493C176.386 213.433 177.577 212.783 178.846 212.541C179.542 212.409 180.28 212.502 181.062 212.82C181.843 213.138 182.327 213.789 182.514 214.771C182.662 215.549 182.45 216.331 181.878 217.118C181.299 217.865 180.539 218.327 179.597 218.506C179.065 218.607 178.546 218.663 178.039 218.675C177.532 218.686 177.051 218.608 176.595 218.44L176.653 218.747C177.034 220.753 178.532 222.165 181.148 222.983C183.804 223.793 186.831 223.875 190.228 223.23C192.971 222.709 195.747 221.694 198.556 220.185C201.366 218.675 204.224 216.309 207.132 213.084C210.08 209.852 213.057 205.427 216.061 199.81C219.106 194.184 222.216 186.998 225.389 178.252C225.381 178.211 225.453 178.028 225.603 177.703C216.157 181.787 208.999 185.968 204.129 190.244C199.291 194.471 196.25 198.335 195.007 201.837C194.712 202.741 194.401 203.225 194.074 203.287C193.787 203.341 193.613 203.205 193.551 202.877C193.488 202.55 193.566 202.175 193.782 201.752C194.38 199.094 196.116 196.177 198.99 193.001C201.898 189.777 205.684 186.598 210.347 183.464C215.044 180.281 220.383 177.464 226.364 175.013C226.487 174.99 226.585 174.95 226.66 174.894C230.176 166.167 234.214 158.848 238.774 152.934C243.326 146.98 247.779 142.402 252.133 139.2C256.479 135.957 260.064 134.067 262.889 133.53C263.83 133.351 264.336 133.446 264.406 133.815C264.437 133.978 264.297 134.132 263.985 134.276C263.673 134.42 263.016 134.757 262.014 135.287C257.489 137.589 252.916 141.871 248.296 148.135C243.668 154.359 239.521 161.89 235.856 170.729C238.27 169.592 240.561 168.478 242.729 167.388C244.896 166.297 246.687 165.342 248.101 164.522C248.422 164.207 248.732 163.83 249.031 163.391C249.329 162.953 249.56 162.379 249.722 161.67C250.213 161.576 251.121 161.446 252.447 161.279C253.772 161.112 255.105 160.986 256.446 160.901C257.78 160.775 258.707 160.747 259.23 160.818C257.51 162.035 255.777 163.743 254.032 165.94C252.286 168.138 250.739 170.595 249.389 173.311C248.031 175.987 247.089 178.732 246.563 181.546C246.319 182.271 246.034 182.664 245.706 182.727C245.215 182.82 244.915 182.58 244.806 182.007C244.759 181.761 244.806 181.116 244.947 180.072C245.422 177.437 245.885 175.186 246.336 173.319C246.821 171.403 247.427 169.57 248.155 167.82C246.618 168.663 244.615 169.617 242.145 170.68C239.716 171.735 237.205 172.806 234.612 173.892L234.448 174.368C230.038 185.979 225.592 195.285 221.112 202.285C216.672 209.279 211.923 214.528 206.863 218.034C201.837 221.491 196.233 223.807 190.052 224.981ZM263.009 211.185C259.57 211.838 256.885 211.542 254.952 210.298C253.011 209.013 251.721 207.243 251.081 204.99C250.429 202.229 250.434 199.132 251.097 195.698C251.8 192.257 252.703 189.307 253.806 186.85C255.275 183.644 257.197 180.48 259.573 177.357C261.94 174.193 264.667 171.469 267.754 169.186C270.874 166.855 274.235 165.347 277.837 164.662C280.006 164.25 281.978 164.47 283.751 165.32C285.557 166.122 286.776 167.736 287.406 170.161C288.272 173.601 288.292 177.393 287.468 181.536C286.635 185.639 285.2 189.58 283.161 193.36C283.673 194.493 284.707 194.912 286.263 194.616C287.777 194.328 289.322 193.42 290.898 191.891C292.466 190.32 293.933 188.557 295.301 186.601C296.709 184.637 297.895 182.843 298.858 181.217C299.822 179.592 300.47 178.536 300.801 178.049L302.35 178.836C301.713 179.721 300.825 181.077 299.688 182.905C298.543 184.692 297.246 186.571 295.797 188.543C294.381 190.466 292.861 192.175 291.236 193.671C289.653 195.16 288.063 196.055 286.467 196.359C284.502 196.732 283.055 196.371 282.126 195.275C279.75 199.289 276.872 202.783 273.493 205.758C270.147 208.684 266.652 210.493 263.009 211.185ZM264.255 209.039C265.688 208.767 267.268 208.043 268.996 206.867C270.723 205.69 272.4 204.248 274.026 202.539C276.751 199.689 279.094 196.508 281.057 192.997L281.01 192.751C280.528 190.213 280.802 188.083 281.832 186.361C282.895 184.589 284.022 183.379 285.213 182.728C286.426 178.172 286.615 174.255 285.78 170.978C285.276 168.996 284.48 167.705 283.39 167.106C282.342 166.5 281.265 166.301 280.16 166.511C277.786 166.962 275.127 168.931 272.185 172.416C269.275 175.853 266.193 180.616 262.939 186.705C260.633 191.088 259.115 194.705 258.385 197.558C257.695 200.404 257.615 202.773 258.144 204.666C258.354 205.771 258.944 206.868 259.914 207.956C260.925 209.036 262.372 209.397 264.255 209.039ZM302.368 203.708C299.707 204.213 297.679 203.92 296.284 202.828C294.889 201.735 294.027 200.436 293.698 198.929C292.959 195.931 293.479 192.418 295.259 188.39C296.997 184.37 299.633 179.268 303.166 173.083C304.405 170.897 305.678 168.556 306.985 166.059C308.333 163.556 309.754 161.101 311.248 158.697C312.686 158.678 314.347 158.49 316.23 158.132C316.803 158.023 317.598 157.851 318.613 157.616C319.629 157.38 320.296 157.211 320.616 157.108C317.844 161.494 315.111 166.085 312.417 170.88C309.723 175.676 307.324 180.012 305.219 183.89C304.528 185.166 303.626 186.78 302.512 188.73C301.391 190.64 300.456 192.641 299.708 194.734C298.994 196.778 298.825 198.676 299.2 200.429C299.309 201.002 299.611 201.475 300.106 201.847C300.6 202.22 301.421 202.297 302.567 202.079C303.386 201.924 304.604 201.417 306.222 200.558C307.882 199.691 309.573 198.437 311.297 196.795C313.689 194.432 316.322 191.323 319.195 187.469C322.06 183.574 325.057 178.7 328.186 172.847C328.877 171.57 329.443 170.53 329.884 169.725C330.325 168.92 330.736 168.185 331.118 167.518C332.217 165.486 333.415 163.307 334.712 160.983C336.009 158.658 337.419 156.143 338.94 153.436C340.273 153.31 341.214 153.237 341.762 153.218C342.302 153.158 343.022 153.042 343.922 152.871C345.846 152.506 347.308 152.164 348.308 151.847C346.391 154.926 344.23 158.623 341.827 162.939C339.465 167.248 337.127 171.572 334.813 175.914C332.491 180.214 330.453 183.995 328.697 187.255C327.168 189.92 326.218 191.733 325.85 192.694C325.514 193.606 325.42 194.451 325.568 195.229C325.702 195.712 325.959 196.172 326.339 196.609C326.76 197.038 327.707 197.113 329.181 196.833C331.35 196.42 333.568 195.257 335.833 193.342C338.14 191.419 340.34 189.157 342.432 186.554C344.558 183.902 346.492 181.244 348.234 178.581C350.017 175.91 351.502 173.57 352.69 171.563C353.878 169.556 354.654 168.285 355.019 167.749L356.445 168.56C356.055 169.185 355.229 170.53 353.967 172.593C352.746 174.649 351.211 177.061 349.362 179.83C347.505 182.558 345.456 185.28 343.215 187.995C341.015 190.704 338.705 193.051 336.283 195.038C333.853 196.984 331.452 198.182 329.077 198.634C327.44 198.945 325.983 198.755 324.707 198.064C323.423 197.333 322.605 196.152 322.253 194.523C321.932 193.057 321.845 191.483 321.992 189.801C322.18 188.111 322.656 186.154 323.421 183.931C319.354 190.429 315.528 195.291 311.942 198.517C310.095 200.183 308.355 201.404 306.722 202.181C305.088 202.958 303.637 203.467 302.368 203.708ZM392.997 186.491C390.745 186.918 388.699 186.862 386.857 186.321C385.056 185.772 384.02 184.782 383.748 183.349C383.538 182.244 383.538 180.908 383.75 179.341C383.953 177.733 384.727 175.444 386.072 172.474C387.457 169.497 389.728 165.375 392.884 160.111C395.425 155.853 397.12 152.605 397.967 150.366C398.814 148.127 399.144 146.516 398.957 145.533C398.848 144.96 398.547 144.488 398.052 144.115C397.557 143.742 396.736 143.665 395.59 143.883C394.771 144.038 393.717 144.514 392.426 145.311C391.176 146.1 389.73 147.307 388.089 148.934C385.275 151.759 381.953 155.931 378.125 161.451C374.288 166.93 370.032 173.995 365.356 182.644L361.068 191.22C359.965 191.218 358.759 191.341 357.449 191.59C355.975 191.87 354.763 192.185 353.811 192.535C352.893 192.837 352.2 193.096 351.732 193.312C355.057 185.809 357.842 179.597 360.088 174.675C362.326 169.712 364.117 165.745 365.462 162.775C366.847 159.798 367.862 157.548 368.506 156.026C369.183 154.456 369.631 153.353 369.849 152.717C370.06 152.041 370.151 151.515 370.122 151.139C369.978 149.936 369.415 149.428 368.433 149.615C367.86 149.723 367.068 150.468 366.058 151.847C365.047 153.227 363.928 154.924 362.699 156.938C361.511 158.945 360.355 161.01 359.231 163.132C358.1 165.213 357.11 167.034 356.261 168.595C356.006 168.813 355.618 168.781 355.098 168.498C354.782 168.176 354.674 167.942 354.773 167.796C355.719 166.301 356.75 164.473 357.866 162.31C359.015 160.098 360.23 157.895 361.509 155.701C362.781 153.466 364.156 151.551 365.635 149.955C367.113 148.36 368.65 147.41 370.247 147.107C371.434 146.882 372.651 146.926 373.898 147.24C375.178 147.506 375.899 148.62 376.06 150.583C376.143 151.246 376.098 152.124 375.924 153.217C375.742 154.27 375.247 155.679 374.437 157.444L364.949 177.823L365.384 178.44C370.401 170.022 374.649 163.363 378.129 158.46C381.642 153.509 384.685 149.772 387.259 147.247C388.975 145.564 390.531 144.377 391.927 143.688C393.356 142.95 394.705 142.461 395.974 142.219C398.635 141.714 400.622 142.015 401.935 143.123C403.281 144.182 404.081 145.493 404.336 147.056C404.606 148.701 404.427 150.771 403.798 153.266C403.202 155.712 401.958 158.874 400.066 162.754C398.206 166.585 395.475 171.409 391.873 177.225C390.205 179.832 389.208 181.506 388.882 182.246C388.59 182.938 388.494 183.55 388.595 184.082C388.673 184.492 389.148 184.762 390.021 184.893C390.927 184.975 392.015 184.896 393.284 184.655C395.781 184.18 398.203 182.978 400.551 181.047C402.899 179.117 405.098 176.854 407.15 174.259C409.235 171.615 411.087 168.973 412.706 166.333C414.325 163.693 415.646 161.385 416.671 159.409C417.736 157.425 418.43 156.169 418.754 155.641L420.242 156.44C419.852 157.066 419.108 158.394 418.009 160.427C416.952 162.451 415.58 164.833 413.895 167.57C412.202 170.267 410.276 172.965 408.117 175.666C405.958 178.366 403.606 180.722 401.062 182.732C398.51 184.701 395.821 185.954 392.997 186.491ZM424.25 180.553C421.671 181.043 419.591 180.696 418.009 179.512C416.427 178.328 415.398 176.488 414.924 173.991C414.403 171.248 414.441 168.209 415.037 164.872C415.674 161.528 417.051 158.064 419.17 154.481C423.475 147.004 427.902 141.731 432.451 138.662C436.992 135.551 441.268 133.615 445.28 132.853C446.958 132.534 448.697 132.649 450.498 133.197C452.332 133.697 453.408 134.786 453.727 136.465C453.758 136.628 453.769 136.796 453.759 136.967C453.79 137.131 453.825 137.315 453.864 137.52C456.237 132.15 459.043 125.827 462.284 118.553C465.518 111.237 469.088 103.243 472.997 94.5696C476.946 85.8883 481.095 76.8086 485.444 67.3303C486.064 67.467 486.843 67.5522 487.783 67.5858C488.722 67.6194 489.724 67.5351 490.788 67.3329C491.525 67.1929 492.394 66.9643 493.394 66.6471L450.599 159.516C448.824 163.119 447.501 165.978 446.631 168.095C445.801 170.203 445.488 171.79 445.69 172.854C445.9 173.959 446.517 174.415 447.54 174.22C450.242 173.707 452.832 172.494 455.31 170.581C457.78 168.627 460.062 166.349 462.154 163.746C464.239 161.102 466.091 158.46 467.71 155.82C469.37 153.172 470.737 150.877 471.81 148.934C472.875 146.95 473.59 145.69 473.954 145.155L475.504 145.942C475.072 146.575 474.267 147.916 473.087 149.964C471.947 152.004 470.474 154.404 468.666 157.165C466.891 159.878 464.862 162.595 462.58 165.319C460.34 168.035 457.886 170.41 455.218 172.443C452.584 174.428 449.814 175.697 446.907 176.249C444.902 176.63 443.395 176.513 442.388 175.899C441.38 175.284 440.76 174.363 440.527 173.135C440.101 170.671 441.772 166.07 445.539 159.332L445.001 159.18C440.608 166.419 436.667 171.684 433.179 174.976C429.723 178.22 426.747 180.079 424.25 180.553ZM424.33 178.629C425.967 178.318 427.853 177.303 429.986 175.583C432.119 173.863 434.746 170.946 437.866 166.833C439.175 165.015 440.542 163.059 441.968 160.965C443.394 158.87 444.834 156.518 446.29 153.909C446.731 153.104 447.385 151.75 448.253 149.846C449.155 147.894 450.245 145.481 451.523 142.609C452.091 140.465 452.247 138.718 451.99 137.367C451.749 136.098 451.083 135.27 449.991 134.884C448.892 134.457 447.77 134.352 446.624 134.57C444.618 134.951 441.746 137.023 438.008 140.787C434.303 144.502 430.371 150.041 426.214 157.405C423.852 161.713 422.243 165.412 421.388 168.501C420.525 171.549 420.28 174.055 420.653 176.02C421.058 178.148 422.283 179.018 424.33 178.629Z" fill="#D3F138"/>
</svg>
