<svg width="24" height="24" viewBox="0 0 24 24" fill="none" xmlns="http://www.w3.org/2000/svg">
<path d="M3.88301 8.35516L2.66051 7.24329C2.66051 7.24329 2.60988 6.69016 3.04301 6.51391C3.53613 6.31329 4.01051 6.54954 4.01051 6.54954L4.75863 7.98954L3.88301 8.35516ZM20.0061 8.39266L18.9486 7.55454L19.6593 6.51579C19.6593 6.51579 20.0268 6.21766 20.6624 6.53454C21.148 6.77641 21.268 7.24516 21.2118 7.38954C21.1574 7.53391 20.0061 8.39266 20.0061 8.39266Z" fill="#F6B055"/>
<path d="M4.2657 8.15459L3.67508 7.99521C3.67508 7.99521 3.60758 7.71584 3.73508 7.46834C3.8682 7.21146 4.12883 7.23959 4.12883 7.23959C4.12883 7.23959 3.5007 6.93396 3.77445 6.18584C4.0482 5.43771 4.88633 5.60271 4.88633 5.60271C4.88633 5.60271 4.86758 5.12834 5.25195 4.83584C5.63445 4.54334 5.92695 4.76271 5.92695 4.76271C5.92695 4.76271 5.6307 3.81584 6.36383 3.37709C6.99008 3.00209 7.42133 3.35834 7.42133 3.35834C7.42133 3.35834 7.67445 2.72459 8.3682 2.71146C8.88758 2.70209 9.04508 2.90271 9.04508 2.90271C9.04508 2.90271 9.22695 2.53709 9.51945 2.37396C9.81195 2.20896 9.98633 2.23334 9.98633 2.23334C9.98633 2.23334 9.8532 1.77959 9.99383 1.40834C10.2413 0.752087 10.9238 0.605836 11.4338 0.733336C12.1332 0.907711 12.047 1.39146 12.047 1.39146C12.047 1.39146 12.4013 1.15334 12.7295 1.19084C13.0576 1.22646 13.2301 1.44396 13.2301 1.44396C13.2301 1.44396 13.4588 0.772711 14.2238 0.772711C14.9907 0.772711 15.2082 1.22834 15.2457 1.57521C15.2832 1.92209 15.0526 2.33084 15.0526 2.33084C15.0526 2.33084 15.1632 2.37396 15.197 2.63646C15.2232 2.83521 15.1463 3.01146 15.1463 3.01146C15.1463 3.01146 15.4988 2.73396 16.202 3.01146C17.3682 3.47084 17.1245 4.71209 17.1245 4.71209C17.1245 4.71209 17.462 4.67271 17.717 4.78146C18.0095 4.90709 18.1445 5.11334 18.1445 5.11334C18.1445 5.11334 18.2101 4.56959 18.8926 4.56584C19.6051 4.56209 20.1882 5.89709 20.0607 6.27959C19.9332 6.66209 19.5863 6.75396 19.5863 6.75396C19.5863 6.75396 19.9032 6.84396 20.0213 7.22834C20.162 7.68209 20.0457 8.16396 20.0457 8.16396C20.0457 8.16396 15.0995 11.1827 15.0451 11.164C14.9907 11.1452 8.86133 11.6196 8.86133 11.6196L4.2657 8.15459Z" fill="#F6B055"/>
<path d="M6.53262 9.08839C6.53262 9.04902 6.58887 8.88589 6.6995 8.81464C6.83637 8.72652 7.04075 8.71714 7.04075 8.71714C7.04075 8.71714 6.81575 8.61027 6.69012 8.25777C6.60762 8.02902 6.70887 7.78152 6.70887 7.78152C6.70887 7.78152 6.1145 7.80964 5.97762 7.35964C5.84075 6.90964 6.05637 6.85152 6.05637 6.85152C6.05637 6.85152 5.81825 5.57464 6.81762 5.55214C8.1845 5.52214 7.95012 7.26027 7.95012 7.26027C7.95012 7.26027 8.14512 7.26027 8.26325 7.36714C8.3795 7.47402 8.41887 7.58277 8.41887 7.58277C8.41887 7.58277 8.67387 7.19839 9.27762 7.29027C10.7026 7.50589 10.0389 8.90089 10.0389 8.90089C10.0389 8.90089 9.7745 8.17902 9.317 8.14902C8.85762 8.11902 8.29137 8.43214 8.29137 8.43214C8.29137 8.43214 9.1595 8.53902 9.39387 8.99839C9.62825 9.45777 9.6095 10.0821 9.6095 10.0821C9.6095 10.0821 7.87137 10.5903 7.832 10.5321C7.79075 10.4759 6.53262 9.08839 6.53262 9.08839Z" fill="#FCE193"/>
<path d="M7.6145 7.56587C7.48887 7.51149 7.13637 7.82087 7.12887 8.05149C7.12137 8.28212 7.31637 8.57649 7.54887 8.59712C7.7795 8.61774 8.01012 8.37962 8.01012 8.14899C8.01012 8.03274 7.77012 7.63337 7.6145 7.56587Z" fill="#E17A2C"/>
<path d="M8.6757 4.9786C8.6757 4.9786 7.74007 4.8436 7.75882 5.6161C7.7832 6.63985 8.93632 6.48798 8.9457 6.54235C8.95507 6.59673 9.00195 6.94548 9.00195 6.94548C9.00195 6.94548 9.45757 6.89298 9.8982 7.1536C10.3388 7.41423 10.5282 7.71985 10.5282 7.71985C10.5282 7.71985 10.6182 7.29798 10.7438 7.11798C10.8694 6.93798 11.0044 6.80298 11.0044 6.80298C11.0044 6.80298 11.0044 6.57798 10.9407 6.39798C10.8957 6.2686 10.7888 6.2011 10.7888 6.2011C10.7888 6.2011 11.8013 5.7211 11.2913 4.92423C10.7157 4.0261 9.79882 4.86048 9.79882 4.86048C9.79882 4.86048 9.43882 4.33923 8.9907 4.46485C8.5407 4.59048 8.6757 4.9786 8.6757 4.9786ZM10.9763 8.34798C10.9763 8.34798 10.7063 7.42173 11.2107 7.1611C11.7151 6.90048 12.0469 7.19673 12.0638 7.14235C12.0807 7.08798 12.8644 6.25173 13.5376 6.27048C14.5351 6.29673 14.7638 6.93048 14.7863 6.99798C14.8969 7.32048 14.7507 7.8436 14.7507 7.8436C14.7507 7.8436 15.1276 7.2586 15.6676 7.31298C16.2076 7.36735 16.2676 7.7986 16.2676 7.7986C16.2676 7.7986 16.8638 8.16798 16.8357 8.5186C16.8094 8.86923 16.4307 9.12985 16.4307 9.12985L15.5138 10.028L14.5257 9.68673C14.5257 9.68673 14.3907 9.23673 14.3907 8.95923C14.3907 8.67985 14.4169 8.45673 14.4169 8.45673C14.4169 8.45673 14.1469 8.6011 13.9594 8.6536C13.7701 8.70798 13.3744 8.71735 13.3744 8.71735C13.3744 8.71735 13.3594 8.49048 12.9788 8.23173C12.1444 7.66548 10.9763 8.34798 10.9763 8.34798Z" fill="#FCE193"/>
<path d="M11.3718 9.59632C11.3718 9.59632 11.0662 8.48632 11.9474 8.46382C12.9993 8.43757 13.1512 9.37132 13.1887 9.89257C13.2243 10.4138 11.8312 11.2144 11.7768 11.1863C11.7224 11.1601 10.4174 10.3576 10.4174 10.3576C10.4174 10.3576 10.3181 10.0688 10.5374 9.81194C10.7662 9.54007 11.3718 9.59632 11.3718 9.59632ZM17.2237 9.08444C17.2237 9.08444 16.9181 8.83319 17.0081 8.35694C17.0981 7.88069 17.4656 7.85444 17.4656 7.85444C17.4656 7.85444 17.1862 7.42319 17.3212 7.14382C17.4562 6.86444 17.6718 6.80257 18.3637 6.81194C19.0556 6.82132 19.4062 7.00882 19.6312 7.25257C19.8337 7.47007 19.7024 8.13382 19.7024 8.13382C19.7024 8.13382 18.6787 9.36569 18.5606 9.33757C18.4443 9.30944 17.2237 9.08444 17.2237 9.08444ZM14.3549 5.87632C14.3549 5.87632 14.7149 6.10132 14.8312 6.27194C14.9474 6.44257 15.1012 6.76694 15.1012 6.76694C15.1012 6.76694 15.1762 5.88944 15.5381 5.46194C15.9337 4.99507 16.4493 5.01382 16.4587 5.01382C16.5562 5.01382 16.7193 4.28632 16.3424 3.90007C15.8699 3.41632 15.0581 3.58507 15.0656 3.65819C15.0731 3.73132 15.3618 4.08007 15.1743 4.89007C14.9999 5.62882 14.3549 5.87632 14.3549 5.87632ZM11.8387 6.04694C11.9831 6.12007 12.2399 5.87819 12.4593 5.77694C12.7106 5.66069 13.0349 5.61569 13.0443 5.49007C13.0537 5.36444 12.6937 4.91444 12.1724 5.16569C11.6512 5.41694 11.6774 5.96632 11.8387 6.04694ZM4.09119 6.48194C4.04619 6.93944 4.51307 7.08194 4.51307 7.08194C4.51307 7.08194 4.45494 7.50382 4.62182 7.74757C4.75682 7.94444 5.03619 8.18819 5.15244 8.16194C5.26869 8.13569 5.63807 7.78507 5.63807 7.75694C5.63807 7.73069 5.61744 6.72382 5.40369 6.36382C5.10744 5.85757 4.17182 5.67007 4.09119 6.48194ZM5.72807 5.87632C5.85369 5.87632 5.97932 5.58944 6.05244 5.48069C6.12369 5.37194 6.39369 5.19382 6.39369 5.19382C6.39369 5.19382 5.97932 4.90694 5.71869 5.16757C5.45807 5.42632 5.53869 5.87632 5.72807 5.87632ZM6.73307 5.05882C6.73307 5.05882 6.98432 5.03257 7.12869 5.04007C7.27307 5.04944 7.51494 5.09444 7.51494 5.09444C7.51494 5.09444 7.55057 4.86007 7.81119 4.68944C8.07182 4.51882 8.31369 4.57319 8.31369 4.57319C8.31369 4.57319 8.36807 4.24882 8.57432 4.10632C8.78057 3.96194 8.90619 3.96194 8.90619 3.96194C8.90619 3.96194 9.09744 3.47069 8.81619 3.28694C8.01557 2.76569 7.60494 3.81194 7.46807 3.83444C7.36682 3.85132 7.01432 3.50069 6.62807 3.77069C5.97182 4.23194 6.73307 5.05882 6.73307 5.05882ZM9.26807 3.88132C9.26807 3.88132 9.48369 3.93569 9.64494 4.03319C9.80619 4.13069 10.0499 4.30319 10.0499 4.30319L11.2368 4.26757C11.2368 4.26757 11.4974 3.92632 11.8743 3.77257C12.1818 3.64694 12.5399 3.63757 12.5399 3.63757C12.5399 3.63757 12.5737 2.76007 11.8481 2.53132C10.9312 2.24444 10.6256 3.17819 10.6256 3.17819C10.6256 3.17819 10.3556 2.87444 10.0406 2.88194C9.34119 2.90069 9.26807 3.88132 9.26807 3.88132Z" fill="#FCE193"/>
<path d="M10.6068 3.56641C10.498 3.56641 9.86053 4.11391 9.84366 4.16828C9.82491 4.22266 9.99553 4.31266 10.0143 4.36516C10.033 4.41953 11.1824 4.29391 11.2462 4.24891C11.308 4.20391 10.8505 3.56641 10.6068 3.56641ZM9.17053 5.41703C9.17616 5.52391 9.70116 6.22516 9.86241 6.25328C10.0237 6.28141 10.5562 5.68703 10.4024 5.55203C10.3312 5.48828 9.80053 5.56141 9.80053 5.56141C9.80053 5.56141 9.79116 5.16578 9.74616 5.10391C9.69928 5.04016 9.16116 5.23891 9.17053 5.41703Z" fill="#E17A2C"/>
<path d="M10.4738 2.34363C10.6106 2.34738 10.7344 1.84113 10.8956 1.67801C11.0569 1.51488 11.4431 1.35363 11.3531 1.10238C11.2631 0.851131 10.5713 0.922381 10.3463 1.29176C10.0969 1.70238 10.1756 2.33426 10.4738 2.34363ZM12.3881 2.20863C12.4163 2.33238 12.765 2.47863 12.8194 2.54051C12.8738 2.60426 13.125 2.82738 13.125 2.82738C13.125 2.82738 13.7006 2.68301 14.0419 2.77301C14.3831 2.86301 14.5444 3.10488 14.6438 3.04301C14.7431 2.97926 14.6888 2.71113 14.6344 2.62113C14.58 2.53113 14.4731 2.36051 14.4731 2.36051C14.4731 2.36051 14.9906 1.55801 14.4544 1.42488C13.6913 1.23551 13.5375 2.00988 13.4381 2.02676C13.3388 2.04363 13.0519 1.73988 12.7369 1.78488C12.4238 1.83176 12.3506 2.04738 12.3881 2.20863ZM12.8194 4.51863C12.9469 4.80176 13.35 4.82426 13.35 4.82426C13.35 4.82426 13.5469 5.45426 13.9519 5.50676C14.3569 5.56113 14.6231 5.13926 14.7075 4.78863C14.8163 4.33863 14.8181 3.36551 13.8169 3.37676C13.0613 3.38613 12.7388 4.33863 12.8194 4.51863ZM16.7906 7.72676C16.9163 7.72301 16.8319 6.98426 17.2294 6.68426C17.6588 6.35988 17.9944 6.41988 18.435 6.44988C18.8925 6.47988 19.2019 6.62238 19.2975 6.49488C19.4175 6.33738 19.4906 5.23863 18.8663 5.14676C18.4969 5.09238 18.3994 5.45238 18.3994 5.45238C18.3994 5.45238 18.0225 5.37176 17.8144 5.74863C17.6719 6.00926 17.6625 6.17988 17.5988 6.19863C17.5706 6.20613 16.6069 4.71738 15.855 5.62301C15.0731 6.56613 16.5019 7.34801 16.5019 7.34801C16.5019 7.34801 16.5488 7.73613 16.7906 7.72676Z" fill="#FCE193"/>
<path d="M13.9424 3.54047C13.8918 3.57422 13.8712 4.44797 13.9162 4.45734C13.9612 4.46672 14.5274 4.77234 14.608 4.69172C14.6887 4.61109 14.6887 4.19672 14.5443 3.92859C14.4543 3.75609 14.1224 3.42234 13.9424 3.54047ZM12.7462 2.44359C12.7387 2.53547 12.8624 3.01922 13.0068 3.03609C13.2468 3.06609 13.6893 2.81109 13.7343 2.72109C13.7793 2.63109 13.6987 2.37047 13.3387 2.28047C12.9824 2.19234 12.7555 2.31797 12.7462 2.44359ZM12.8362 7.91672C12.9618 8.05172 13.3968 7.68422 13.5543 7.75547C13.7343 7.83609 13.5543 8.30297 13.7512 8.35734C13.948 8.41172 14.3437 7.77234 14.2987 7.49484C14.2799 7.37859 14.0474 7.22484 13.7962 7.13484C13.5449 7.04484 13.2037 6.98297 13.0499 7.08047C12.8962 7.17797 12.6112 7.67484 12.8362 7.91672ZM18.0937 8.56359C18.0937 8.56359 18.0749 7.98797 18.2287 7.70109C18.3805 7.41422 18.7687 7.45922 18.8305 7.53047C18.8924 7.60172 19.1099 8.12297 19.1099 8.12297L18.6524 8.90484L18.0937 8.56359Z" fill="#E17A2C"/>
<path d="M11.878 11.5034L10.0855 10.8022L10.0349 10.7234C9.94491 10.5828 8.76366 10.3934 8.76366 10.3934L8.65866 10.3728L7.18679 10.0559L7.14554 9.98468C7.05366 9.82905 5.86866 9.40718 5.86866 9.40718L4.75491 8.95718L4.72491 8.88405C4.62554 8.64593 3.87179 8.23343 3.85491 8.26718L3.51929 8.1003C3.60741 7.92218 3.88679 7.6278 4.31054 7.79843C4.67991 7.94655 5.10179 8.45843 5.19366 8.66093L5.79929 8.97405C5.94741 8.8803 6.22679 8.78655 6.60929 8.91968C7.16429 9.11468 7.31054 9.54405 7.42491 9.72218L8.64366 9.98468C8.77304 9.87968 9.04679 9.70343 9.41241 9.76343C10.0518 9.86843 10.2074 10.2378 10.3405 10.4253L11.7449 10.5453C11.8855 10.3522 12.2437 9.94343 12.8005 9.86655C13.3218 9.79343 13.7024 9.97343 13.8562 10.1534L15.1987 9.70155C15.3112 9.52718 15.6993 9.03405 16.3068 8.92343C16.873 8.8203 17.3174 9.10718 17.5218 9.23655L18.418 8.77718C18.5137 8.61593 18.823 8.11343 19.2955 7.96905C19.8862 7.79093 20.2649 8.16405 20.2818 8.17718L20.0287 8.45468C20.0212 8.44718 18.7893 9.14655 18.7855 9.15218L18.5212 9.6078L17.4862 9.6753L17.3924 9.6003C17.3887 9.59655 15.493 9.93968 15.4893 9.9453L15.4537 10.0109L13.7587 10.5809L13.6762 10.4928C13.6649 10.4816 11.878 11.5034 11.878 11.5034Z" fill="#DFDFDF"/>
<path d="M20.1976 8.73366C20.1544 8.73741 19.8019 8.24241 19.3426 8.43366C18.8832 8.62679 18.4444 9.41616 18.4444 9.41616L17.0138 9.64116C17.0138 9.64116 16.8207 9.25116 16.2863 9.40116C15.7519 9.55116 15.2719 10.2074 15.2607 10.1643C15.2494 10.1212 13.6857 10.5205 13.6857 10.5205C13.6857 10.5205 13.3763 10.1755 12.8251 10.3124C12.2551 10.4549 11.9457 11.1543 11.9457 11.1543L10.1701 10.8018C10.1701 10.8018 9.86632 10.2918 9.40694 10.228C8.94757 10.1643 8.64944 10.4643 8.64944 10.4643L7.32382 10.1418C7.32382 10.1418 7.12132 9.58679 6.54382 9.39366C5.96632 9.20054 5.68882 9.44616 5.68882 9.44616L4.83007 8.86304C4.83007 8.86304 4.57694 8.44679 4.09507 8.22179C3.61507 7.99679 3.47632 8.39054 3.47632 8.39054L6.46882 20.9812L12.1988 23.3118L17.8557 20.8349C17.8594 20.8368 20.3269 8.72054 20.1976 8.73366Z" fill="white"/>
<path d="M3.88314 8.35517L3.87939 8.34204C3.82689 8.09642 3.69002 7.53954 3.36564 7.28642C2.94377 6.95829 2.66064 7.24142 2.66064 7.24142L5.91377 20.7752L6.70877 21.0789L3.88314 8.35517ZM5.99252 9.37142C5.99252 9.37142 5.94189 8.52579 5.27439 8.32517C4.74377 8.16579 4.72127 8.71142 4.72127 8.71142L7.3594 21.347L8.36627 21.752L5.99252 9.37142ZM8.82377 10.3483C8.82377 10.3483 8.55189 9.43892 7.86002 9.36204C7.16814 9.28517 7.23752 9.86642 7.23752 9.86642L9.02815 22.0277L10.035 22.4364L8.82377 10.3483ZM11.0231 10.0914C10.2638 9.99579 10.1588 10.7589 10.1588 10.7589L10.9444 22.8077L12.2044 23.3139L11.9794 11.0927C11.9794 11.0927 11.82 10.1927 11.0231 10.0914ZM15.3825 10.1383C15.3825 10.1383 15.4219 9.18204 14.5669 9.42392C13.7119 9.66392 13.6181 10.4645 13.6181 10.4645L13.4044 22.7927L14.4656 22.322L15.3825 10.1383ZM18.5531 9.11267C18.5531 9.11267 18.5175 8.36267 17.7844 8.51454C17.0156 8.67204 17.0081 9.44642 17.0081 9.44642L15.66 21.8083L16.6838 21.3564L18.5531 9.11267ZM20.5106 7.31642C19.8806 7.61829 19.8263 8.42829 19.8263 8.42829L17.6794 20.9195L18.6863 20.4733L21.2194 7.37829C21.2175 7.37829 21.0619 7.05204 20.5106 7.31642Z" fill="#ED3D23"/>
</svg>
