<svg width="53" height="10" viewBox="0 0 53 10" fill="none" xmlns="http://www.w3.org/2000/svg">
<path d="M2.46885 8.27202C2.65129 8.41177 2.87644 8.36519 3.14041 8.17498L5.15896 6.69211L7.17751 8.17498C7.44148 8.36519 7.67051 8.41177 7.85295 8.27202C8.03152 8.13616 8.07034 7.91101 7.96553 7.60435L7.16975 5.23254L9.20772 3.76909C9.4678 3.58276 9.58037 3.37703 9.50662 3.15964C9.43286 2.94614 9.22712 2.84133 8.90493 2.84521L6.40503 2.86074L5.64419 0.477295C5.54714 0.166748 5.38799 -0.00017116 5.15896 -0.00017116C4.93381 -0.00017116 4.77466 0.166748 4.67373 0.477295L3.91289 2.86074L1.41299 2.84521C1.0908 2.84133 0.88894 2.94614 0.815186 3.15964C0.741431 3.37703 0.850122 3.58276 1.11409 3.76909L3.15205 5.23254L2.35239 7.60435C2.24758 7.91101 2.2864 8.13616 2.46885 8.27202Z" fill="#D3F138"/>
<path d="M13.0704 8.27202C13.2529 8.41177 13.478 8.36519 13.742 8.17498L15.7605 6.69211L17.7791 8.17498C18.043 8.36519 18.2721 8.41177 18.4545 8.27202C18.6331 8.13616 18.6719 7.91101 18.5671 7.60435L17.7713 5.23254L19.8093 3.76909C20.0694 3.58276 20.1819 3.37703 20.1082 3.15964C20.0344 2.94614 19.8287 2.84133 19.5065 2.84521L17.0066 2.86074L16.2458 0.477295C16.1487 0.166748 15.9896 -0.00017116 15.7605 -0.00017116C15.5354 -0.00017116 15.3762 0.166748 15.2753 0.477295L14.5145 2.86074L12.0146 2.84521C11.6924 2.84133 11.4905 2.94614 11.4167 3.15964C11.343 3.37703 11.4517 3.58276 11.7156 3.76909L13.7536 5.23254L12.954 7.60435C12.8491 7.91101 12.888 8.13616 13.0704 8.27202Z" fill="#D3F138"/>
<path d="M23.672 8.27202C23.8544 8.41177 24.0796 8.36519 24.3435 8.17498L26.3621 6.69211L28.3806 8.17498C28.6446 8.36519 28.8736 8.41177 29.0561 8.27202C29.2346 8.13616 29.2735 7.91101 29.1687 7.60435L28.3729 5.23254L30.4108 3.76909C30.6709 3.58276 30.7835 3.37703 30.7097 3.15964C30.636 2.94614 30.4302 2.84133 30.1081 2.84521L27.6082 2.86074L26.8473 0.477295C26.7503 0.166748 26.5911 -0.00017116 26.3621 -0.00017116C26.1369 -0.00017116 25.9778 0.166748 25.8769 0.477295L25.116 2.86074L22.6161 2.84521C22.2939 2.84133 22.0921 2.94614 22.0183 3.15964C21.9446 3.37703 22.0532 3.58276 22.3172 3.76909L24.3552 5.23254L23.5555 7.60435C23.4507 7.91101 23.4895 8.13616 23.672 8.27202Z" fill="#D3F138"/>
<path d="M34.2657 8.27202C34.4482 8.41177 34.6733 8.36519 34.9373 8.17498L36.9558 6.69211L38.9744 8.17498C39.2384 8.36519 39.4674 8.41177 39.6498 8.27202C39.8284 8.13616 39.8672 7.91101 39.7624 7.60435L38.9666 5.23254L41.0046 3.76909C41.2647 3.58276 41.3772 3.37703 41.3035 3.15964C41.2297 2.94614 41.024 2.84133 40.7018 2.84521L38.2019 2.86074L37.4411 0.477295C37.344 0.166748 37.1849 -0.00017116 36.9558 -0.00017116C36.7307 -0.00017116 36.5715 0.166748 36.4706 0.477295L35.7098 2.86074L33.2099 2.84521C32.8877 2.84133 32.6858 2.94614 32.6121 3.15964C32.5383 3.37703 32.647 3.58276 32.911 3.76909L34.9489 5.23254L34.1493 7.60435C34.0445 7.91101 34.0833 8.13616 34.2657 8.27202ZM34.945 7.3365C34.9412 7.32874 34.9412 7.32485 34.945 7.30544L35.6826 5.2209C35.7486 5.03069 35.7253 4.91035 35.5506 4.7939L33.7261 3.54395C33.7106 3.53618 33.7029 3.52842 33.7067 3.51677C33.7145 3.50901 33.7223 3.50513 33.7417 3.50513L35.9504 3.55559C36.1523 3.56335 36.2532 3.49736 36.3115 3.30327L36.9364 1.18379C36.9403 1.1605 36.9481 1.15662 36.9558 1.15662C36.9675 1.15662 36.9714 1.1605 36.9791 1.18379L37.6002 3.30327C37.6584 3.49736 37.7633 3.56335 37.9612 3.55559L40.17 3.50513C40.1933 3.50513 40.2011 3.50901 40.2049 3.51677C40.2088 3.52842 40.2049 3.5323 40.1855 3.54395L38.3649 4.7939C38.1864 4.91423 38.1631 5.03069 38.2291 5.2209L38.9666 7.30544C38.9744 7.32485 38.9744 7.32874 38.9666 7.3365C38.9589 7.34814 38.9511 7.34038 38.9356 7.33262L37.1849 5.98174C37.0257 5.85752 36.886 5.85752 36.7307 5.98174L34.98 7.33262C34.9645 7.34038 34.9528 7.34814 34.945 7.3365Z" fill="#D3F138"/>
<path d="M44.8673 8.27202C45.0497 8.41177 45.2749 8.36519 45.5388 8.17498L47.5574 6.69211L49.576 8.17498C49.8399 8.36519 50.0689 8.41177 50.2514 8.27202C50.43 8.13616 50.4688 7.91101 50.364 7.60435L49.5682 5.23254L51.6062 3.76909C51.8662 3.58276 51.9788 3.37703 51.9051 3.15964C51.8313 2.94614 51.6256 2.84133 51.3034 2.84521L48.8035 2.86074L48.0426 0.477295C47.9456 0.166748 47.7864 -0.00017116 47.5574 -0.00017116C47.3323 -0.00017116 47.1731 0.166748 47.0722 0.477295L46.3113 2.86074L43.8114 2.84521C43.4892 2.84133 43.2874 2.94614 43.2136 3.15964C43.1399 3.37703 43.2486 3.58276 43.5125 3.76909L45.5505 5.23254L44.7508 7.60435C44.646 7.91101 44.6848 8.13616 44.8673 8.27202ZM45.5466 7.3365C45.5427 7.32874 45.5427 7.32485 45.5466 7.30544L46.2842 5.2209C46.3501 5.03069 46.3269 4.91035 46.1522 4.7939L44.3277 3.54395C44.3122 3.53618 44.3044 3.52842 44.3083 3.51677C44.3161 3.50901 44.3238 3.50513 44.3432 3.50513L46.552 3.55559C46.7539 3.56335 46.8548 3.49736 46.913 3.30327L47.538 1.18379C47.5419 1.1605 47.5496 1.15662 47.5574 1.15662C47.569 1.15662 47.5729 1.1605 47.5807 1.18379L48.2018 3.30327C48.26 3.49736 48.3648 3.56335 48.5628 3.55559L50.7716 3.50513C50.7948 3.50513 50.8026 3.50901 50.8065 3.51677C50.8104 3.52842 50.8065 3.5323 50.7871 3.54395L48.9665 4.7939C48.7879 4.91423 48.7646 5.03069 48.8306 5.2209L49.5682 7.30544C49.576 7.32485 49.576 7.32874 49.5682 7.3365C49.5604 7.34814 49.5527 7.34038 49.5371 7.33262L47.7864 5.98174C47.6273 5.85752 47.4875 5.85752 47.3323 5.98174L45.5815 7.33262C45.566 7.34038 45.5544 7.34814 45.5466 7.3365Z" fill="#D3F138"/>
</svg>
