<svg width="92" height="92" viewBox="0 0 92 92" fill="none" xmlns="http://www.w3.org/2000/svg">
<g filter="url(#filter0_d_10102_5204)">
<rect x="5.67871" y="4.67871" width="80" height="80" rx="40" fill="#4D4E4C" fill-opacity="0.49" shape-rendering="crispEdges"/>
<path d="M55.779 61.2387C53.819 63.1387 51.679 62.8387 49.619 61.9387C47.439 61.0187 45.439 60.9787 43.139 61.9387C40.259 63.1787 38.739 62.8187 37.019 61.2387C27.259 51.1787 28.699 35.8587 39.779 35.2987C42.479 35.4387 44.359 36.7787 45.939 36.8987C48.299 36.4187 50.559 35.0387 53.079 35.2187C56.099 35.4587 58.379 36.6587 59.879 38.8187C53.639 42.5587 55.119 50.7787 60.839 53.0787C59.699 56.0787 58.219 59.0587 55.759 61.2587L55.779 61.2387ZM45.739 35.1787C45.439 30.7187 49.059 27.0387 53.219 26.6787C53.799 31.8387 48.539 35.6787 45.739 35.1787Z" fill="#EDE9D7"/>
</g>
<defs>
<filter id="filter0_d_10102_5204" x="0.00035429" y="0.00035429" width="91.3567" height="91.3567" filterUnits="userSpaceOnUse" color-interpolation-filters="sRGB">
<feFlood flood-opacity="0" result="BackgroundImageFix"/>
<feColorMatrix in="SourceAlpha" type="matrix" values="0 0 0 0 0 0 0 0 0 0 0 0 0 0 0 0 0 0 127 0" result="hardAlpha"/>
<feOffset dy="1"/>
<feGaussianBlur stdDeviation="2.83918"/>
<feComposite in2="hardAlpha" operator="out"/>
<feColorMatrix type="matrix" values="0 0 0 0 0.2 0 0 0 0 0.196078 0 0 0 0 0.176471 0 0 0 1 0"/>
<feBlend mode="normal" in2="BackgroundImageFix" result="effect1_dropShadow_10102_5204"/>
<feBlend mode="normal" in="BackgroundImageFix" in2="effect1_dropShadow_10102_5204" result="BackgroundImageFix"/>
<feBlend mode="normal" in="SourceGraphic" in2="BackgroundImageFix" result="shape"/>
</filter>
</defs>
</svg>
