<svg width="92" height="92" viewBox="0 0 92 92" fill="none" xmlns="http://www.w3.org/2000/svg">
<g filter="url(#filter0_d_10102_5170)">
<rect x="5.67871" y="4.67871" width="80" height="80" rx="40" fill="#EDE9D7" shape-rendering="crispEdges"/>
<path d="M64.3783 42.8787H46.0383V48.3387H59.0583C58.3983 55.9587 52.0583 59.2187 46.0583 59.2187C38.3983 59.2187 31.6783 53.1787 31.6783 44.6787C31.6783 36.4787 38.0783 30.1387 46.0783 30.1387C52.2583 30.1387 55.8783 34.0787 55.8783 34.0787L59.6783 30.1187C59.6783 30.1187 54.7983 24.6787 45.8783 24.6787C34.5183 24.6787 25.7383 34.2787 25.7383 44.6787C25.7383 54.7787 33.9983 64.6787 46.1783 64.6787C56.8783 64.6787 64.6783 57.3387 64.6783 46.4987C64.6783 44.1987 64.3783 42.8787 64.3783 42.8787Z" fill="#33322D"/>
</g>
<defs>
<filter id="filter0_d_10102_5170" x="0.00035429" y="0.00035429" width="91.3567" height="91.3567" filterUnits="userSpaceOnUse" color-interpolation-filters="sRGB">
<feFlood flood-opacity="0" result="BackgroundImageFix"/>
<feColorMatrix in="SourceAlpha" type="matrix" values="0 0 0 0 0 0 0 0 0 0 0 0 0 0 0 0 0 0 127 0" result="hardAlpha"/>
<feOffset dy="1"/>
<feGaussianBlur stdDeviation="2.83918"/>
<feComposite in2="hardAlpha" operator="out"/>
<feColorMatrix type="matrix" values="0 0 0 0 0.2 0 0 0 0 0.196078 0 0 0 0 0.176471 0 0 0 1 0"/>
<feBlend mode="normal" in2="BackgroundImageFix" result="effect1_dropShadow_10102_5170"/>
<feBlend mode="normal" in="BackgroundImageFix" in2="effect1_dropShadow_10102_5170" result="BackgroundImageFix"/>
<feBlend mode="normal" in="SourceGraphic" in2="BackgroundImageFix" result="shape"/>
</filter>
</defs>
</svg>
