<svg width="32" height="32" viewBox="0 0 32 32" fill="none" xmlns="http://www.w3.org/2000/svg">
<path d="M20.28 26.1005H16.48C15.92 26.1005 14.7 25.9305 14.05 25.2805L11.02 22.9405L11.94 21.7505L15.04 24.1505C15.29 24.3905 15.92 24.5905 16.48 24.5905H20.28C21.18 24.5905 22.15 23.8705 22.35 23.0605L24.77 15.7105C24.93 15.2705 24.9 14.8705 24.69 14.5805C24.47 14.2705 24.07 14.0905 23.58 14.0905H19.58C19.06 14.0905 18.58 13.8705 18.25 13.4905C17.91 13.1005 17.76 12.5805 17.84 12.0405L18.34 8.83048C18.46 8.27048 18.08 7.64048 17.54 7.46048C17.05 7.28048 16.42 7.54048 16.2 7.86048L12.1 13.9605L10.86 13.1305L14.96 7.03048C15.59 6.09048 16.97 5.64048 18.05 6.05048C19.3 6.46048 20.1 7.84048 19.82 9.12048L19.33 12.2705C19.32 12.3405 19.32 12.4405 19.39 12.5205C19.44 12.5705 19.51 12.6005 19.59 12.6005H23.59C24.57 12.6005 25.42 13.0105 25.92 13.7205C26.41 14.4105 26.51 15.3205 26.19 16.2005L23.8 23.4805C23.43 24.9305 21.89 26.1005 20.28 26.1005Z" fill="#33322D"/>
<path d="M9.38 25.0004H8.38C6.53 25.0004 5.63 24.1304 5.63 22.3504V12.5504C5.63 10.7704 6.53 9.90039 8.38 9.90039H9.38C11.23 9.90039 12.13 10.7704 12.13 12.5504V22.3504C12.13 24.1304 11.23 25.0004 9.38 25.0004ZM8.38 11.4004C7.29 11.4004 7.13001 11.6604 7.13001 12.5504V22.3504C7.13001 23.2404 7.29 23.5004 8.38 23.5004H9.38C10.47 23.5004 10.63 23.2404 10.63 22.3504V12.5504C10.63 11.6604 10.47 11.4004 9.38 11.4004H8.38Z" fill="#33322D"/>
</svg>
