<svg width="24" height="24" viewBox="0 0 24 24" fill="none" xmlns="http://www.w3.org/2000/svg">
<path fill-rule="evenodd" clip-rule="evenodd" d="M22.1647 6.42612C22.3634 6.21285 22.4716 5.93079 22.4665 5.63933C22.4613 5.34788 22.3433 5.0698 22.1371 4.86368C21.931 4.65757 21.653 4.5395 21.3615 4.53435C21.07 4.52921 20.788 4.6374 20.5747 4.83612L4.83072 20.5801C4.72019 20.6831 4.63154 20.8073 4.57005 20.9453C4.50856 21.0833 4.4755 21.2323 4.47283 21.3833C4.47017 21.5344 4.49795 21.6844 4.55453 21.8245C4.61112 21.9646 4.69533 22.0918 4.80216 22.1987C4.90899 22.3055 5.03624 22.3897 5.17632 22.4463C5.3164 22.5029 5.46645 22.5307 5.6175 22.528C5.76856 22.5253 5.91753 22.4923 6.05553 22.4308C6.19352 22.3693 6.31773 22.2806 6.42072 22.1701L22.1647 6.42612ZM22.1647 13.9261C22.3634 13.7129 22.4716 13.4308 22.4665 13.1393C22.4613 12.8479 22.3433 12.5698 22.1371 12.3637C21.931 12.1576 21.653 12.0395 21.3615 12.0344C21.07 12.0292 20.788 12.1374 20.5747 12.3361L12.3307 20.5801C12.2202 20.6831 12.1315 20.8073 12.07 20.9453C12.0086 21.0833 11.9755 21.2323 11.9728 21.3833C11.9702 21.5344 11.998 21.6844 12.0545 21.8245C12.1111 21.9646 12.1953 22.0918 12.3022 22.1987C12.409 22.3055 12.5362 22.3897 12.6763 22.4463C12.8164 22.5029 12.9664 22.5307 13.1175 22.528C13.2686 22.5253 13.4175 22.4923 13.5555 22.4308C13.6935 22.3693 13.8177 22.2806 13.9207 22.1701L22.1647 13.9261Z" fill="#4D4E4C"/>
</svg>
